<svg width="17" height="16" viewBox="0 0 17 16" fill="none" xmlns="http://www.w3.org/2000/svg">
<path fill-rule="evenodd" clip-rule="evenodd" d="M3.83337 6C3.83337 4.76232 4.32503 3.57533 5.2002 2.70016C6.07537 1.82499 7.26236 1.33333 8.50003 1.33333C9.73771 1.33333 10.9247 1.82499 11.7999 2.70016C12.675 3.57533 13.1667 4.76232 13.1667 6V8.50933L14.3814 10.9387C14.4373 11.0505 14.4637 11.1747 14.4581 11.2996C14.4525 11.4245 14.415 11.5459 14.3493 11.6522C14.2835 11.7586 14.1917 11.8463 14.0825 11.9072C13.9733 11.9681 13.8504 12 13.7254 12H11.0827C10.9344 12.5722 10.6003 13.0789 10.1329 13.4406C9.66543 13.8024 9.0911 13.9986 8.50003 13.9986C7.90897 13.9986 7.33464 13.8024 6.86719 13.4406C6.39975 13.0789 6.06566 12.5722 5.91737 12H3.2747C3.14969 12 3.02674 11.9681 2.91755 11.9072C2.80835 11.8463 2.71653 11.7586 2.6508 11.6522C2.58507 11.5459 2.54762 11.4245 2.542 11.2996C2.53638 11.1747 2.56279 11.0505 2.6187 10.9387L3.83337 8.50933V6ZM7.34537 12C7.4624 12.2027 7.63071 12.371 7.8334 12.488C8.03608 12.605 8.266 12.6666 8.50003 12.6666C8.73407 12.6666 8.96399 12.605 9.16667 12.488C9.36936 12.371 9.53767 12.2027 9.6547 12H7.34537ZM8.50003 2.66666C7.61598 2.66666 6.76813 3.01785 6.14301 3.64297C5.51789 4.26809 5.1667 5.11594 5.1667 6V8.50933C5.16669 8.71622 5.11853 8.92027 5.02603 9.10533L4.24603 10.6667H12.7547L11.9747 9.10533C11.882 8.92032 11.8336 8.71627 11.8334 8.50933V6C11.8334 5.11594 11.4822 4.26809 10.8571 3.64297C10.2319 3.01785 9.38409 2.66666 8.50003 2.66666Z" fill="black"/>
</svg>
