<svg width="102" height="20" viewBox="0 0 102 20" fill="none" xmlns="http://www.w3.org/2000/svg">
<path d="M10.2994 3.76593C10.4034 3.92734 10.393 4.01233 10.3599 4.19404C10.4652 4.22446 10.5709 4.26101 10.6792 4.27781L10.7324 4.23573C13.1518 4.09792 14.9311 4.33298 16.8146 6.00121C18.2856 7.30407 18.9645 9.19616 19.075 11.1146C19.2059 13.3813 18.8529 15.5486 17.2925 17.3065C16.4237 18.2851 15.4254 18.8264 14.1803 19.1731C13.7843 19.2833 13.3662 19.3917 12.9543 19.4159C12.4066 19.4484 11.8529 19.437 11.3044 19.4366C10.7984 19.4363 10.2753 19.4612 9.77208 19.4049C9.41762 19.3653 9.07361 19.2508 8.73495 19.1438C7.58552 18.7808 7.0506 18.4866 6.14956 17.6809C4.69945 16.3849 4.01586 14.4741 3.92103 12.5696C3.80751 10.2886 4.31967 8.06944 5.88259 6.34229C6.89197 5.22688 8.23363 4.60837 9.69358 4.35081L10.0307 4.28883C10.0877 4.10031 10.1945 3.93073 10.2994 3.76593Z" fill="#F8D0B3"/>
<path d="M10.7324 4.23569C13.1518 4.09789 14.9311 4.33295 16.8146 6.00118C18.2856 7.30403 18.9645 9.19612 19.075 11.1145C19.2059 13.3813 18.8529 15.5486 17.2925 17.3064C16.4237 18.285 15.4254 18.8264 14.1803 19.173C13.7843 19.2832 13.3662 19.3917 12.9543 19.4159C12.4066 19.4484 11.8529 19.437 11.3044 19.4366C10.7984 19.4362 10.2753 19.4612 9.77208 19.4049C9.41762 19.3653 9.07361 19.2508 8.73495 19.1438C7.58552 18.7807 7.0506 18.4865 6.14956 17.6809C4.69945 16.3849 4.01586 14.474 3.92103 12.5696C3.80751 10.2886 4.31967 8.06941 5.88259 6.34226C6.89197 5.22685 8.23363 4.60834 9.69358 4.35078L10.0307 4.2888L10.018 4.39251C10.0046 4.62906 9.99497 4.86665 9.97525 5.10278C9.8209 5.10724 9.67461 5.10499 9.52632 5.15353L9.25935 5.20117C8.93638 5.30242 8.6133 5.40531 8.30553 5.54707L8.22942 5.45895C7.85599 5.59554 7.33644 5.85164 7.0735 6.15667C7.09404 6.24276 7.08887 6.24319 7.04978 6.32372C6.32053 6.87557 5.57396 7.86352 5.26393 8.72993C4.68237 10.2308 4.61493 11.4926 4.71725 13.0739C4.72153 13.0856 4.72656 13.0974 4.73005 13.1095C4.8129 13.3981 4.79628 13.7504 4.86614 14.0546C5.13326 15.2444 5.74992 16.3271 6.63698 17.1638C6.64707 17.1734 6.65748 17.1827 6.6675 17.1923C6.69725 17.2212 6.6868 17.2101 6.71051 17.2483C8.13431 18.4469 9.52301 18.7215 11.338 18.728C11.8203 18.7297 12.3109 18.7454 12.7918 18.7044C14.0413 18.5978 15.1566 18.2265 16.1276 17.418C16.3069 17.2012 16.5265 17.0129 16.7176 16.8053C16.9497 16.5536 17.1533 16.2829 17.3699 16.0183C17.5954 15.6591 17.776 15.2779 17.9416 14.8881C18.0231 14.5065 18.1602 14.137 18.2414 13.7547C18.3746 13.127 18.381 12.4819 18.3885 11.8431C18.3255 11.423 18.3205 10.9854 18.2653 10.5607C18.136 10.2194 18.1304 9.75097 17.9814 9.35019C17.8203 8.66577 17.3855 7.86855 16.9675 7.30485C16.1228 6.16591 14.644 5.29244 13.2349 5.09861C12.8747 5.04907 10.9754 4.87589 10.7663 5.03366C10.6892 4.77261 10.6688 4.54707 10.6792 4.27778L10.7324 4.23569Z" fill="#F6A393"/>
<path d="M6.71069 17.2483C8.13449 18.4469 9.52318 18.7215 11.3381 18.728C11.8205 18.7298 12.311 18.7454 12.792 18.7044C14.0415 18.5978 15.1568 18.2265 16.1278 17.418L16.1687 17.5086C15.9489 17.6424 15.7639 17.8289 15.5517 17.9737C15.3383 18.1195 15.0517 18.2151 14.8135 18.3157C14.3983 18.4908 13.971 18.6566 13.5272 18.7433C12.8358 18.8781 12.1576 18.8414 11.4591 18.8635C11.0987 18.8753 10.7285 18.9213 10.3688 18.8999C9.91209 18.8728 9.00888 18.7404 8.57147 18.6135C8.3342 18.5447 8.11234 18.382 7.88983 18.2743C7.65431 18.1602 7.40617 18.0661 7.16373 17.9673L7.22699 17.9516C7.43249 18.06 7.70567 18.1217 7.92714 18.2055L7.95563 18.1902C7.74554 17.9658 7.41184 17.8485 7.15413 17.682C7.00538 17.5857 6.74871 17.428 6.71069 17.2483Z" fill="#E58573"/>
<path d="M7.07358 6.15668C7.09412 6.24277 7.08895 6.2432 7.04987 6.32373C6.32062 6.87558 5.57404 7.86353 5.26402 8.72994C4.68245 10.2308 4.61502 11.4926 4.71733 13.0739C4.71534 13.1096 4.70243 13.1384 4.69073 13.172C4.51284 12.9234 4.71341 11.7629 4.59112 11.6206C4.47407 11.6976 4.5592 11.7686 4.48434 11.867C4.43809 11.6848 4.68627 9.86464 4.75236 9.64353C4.85749 9.29167 5.03424 8.93811 5.17204 8.59545C5.3943 7.77833 6.38931 6.62701 7.07358 6.15668Z" fill="#E58573"/>
<path d="M10.0309 4.28882L10.0182 4.39253C10.0048 4.62908 9.99517 4.86667 9.97545 5.1028C9.8211 5.10726 9.67481 5.10501 9.52652 5.15355L9.25954 5.2012C8.93657 5.30245 8.6135 5.40534 8.30572 5.5471L8.22961 5.45897C8.52701 5.32809 9.52994 4.61514 9.69378 4.3508L10.0309 4.28882Z" fill="#E58573"/>
<path d="M9.25953 5.20122C9.23942 5.14251 9.23985 5.17283 9.26288 5.11038C9.58107 4.92493 9.81064 4.69159 10.0182 4.39255C10.0048 4.6291 9.99516 4.86669 9.97544 5.10282C9.82109 5.10728 9.6748 5.10503 9.52651 5.15357L9.25953 5.20122Z" fill="#9E6859"/>
<path d="M18.3885 11.8431C18.5369 12.0953 18.4484 12.866 18.4695 13.1926C18.3899 13.8588 18.2624 14.2347 18.0678 14.8613L17.9417 14.8881C18.0231 14.5065 18.1602 14.137 18.2414 13.7547C18.3746 13.127 18.381 12.4819 18.3885 11.8431Z" fill="#E58573"/>
<path d="M18.2654 10.5607L18.3141 10.4773L18.3643 10.4837C18.517 10.8685 18.594 12.8079 18.4695 13.1927C18.4485 12.866 18.5369 12.0953 18.3886 11.8432C18.3255 11.4231 18.3206 10.9855 18.2654 10.5607Z" fill="#FA9B95"/>
<path d="M17.37 16.0183C17.5955 15.6592 17.7762 15.2779 17.9418 14.8881L18.0679 14.8614C17.9409 15.2644 17.8084 15.688 17.5181 16.0029C17.5026 16.0197 17.4877 16.0368 17.4725 16.0539L17.37 16.0183Z" fill="#E58573"/>
<path d="M10.2995 3.76593C10.4035 3.92734 10.3931 4.01233 10.36 4.19404C10.4653 4.22446 10.571 4.26101 10.6793 4.27781C10.6689 4.5471 10.6893 4.77264 10.7664 5.0337C10.8636 5.23594 10.9421 5.41629 11.1242 5.5577C11.1906 5.57171 11.2286 5.57767 11.2975 5.57157C11.4292 5.40552 11.6212 5.20638 11.8135 5.1184C11.931 5.06458 12.0017 5.07852 12.1141 5.12307C12.0374 5.2777 11.9569 5.42974 11.877 5.58273C11.9029 5.69094 11.9006 5.75256 12.0072 5.81601C12.35 6.01993 12.7956 5.69657 13.0018 6.19229C13.0069 6.20467 13.0114 6.21729 13.0162 6.22981C13.0257 6.33826 13.0499 6.42924 12.9736 6.52154C12.9141 6.59351 12.8334 6.65852 12.7638 6.7209C12.517 6.72357 12.1938 6.58584 11.9649 6.6755C11.9163 6.74301 11.8848 6.78502 11.8108 6.82471C11.7044 6.81997 11.6399 6.77767 11.5511 6.72528C11.0523 6.68088 10.7244 6.72856 10.3108 6.37114C10.1283 6.14301 10.0835 5.94725 10.0332 5.66765C10.0063 5.47981 9.99075 5.29183 9.97534 5.10281C9.99506 4.86668 10.0047 4.62909 10.0181 4.39254L10.0308 4.28883C10.0878 4.10031 10.1946 3.93073 10.2995 3.76593Z" fill="#7A493A"/>
<path d="M10.3599 4.194C10.4651 4.22442 10.5709 4.26098 10.6792 4.27777C10.6688 4.54707 10.6891 4.7726 10.7662 5.03366C10.8635 5.23591 10.942 5.41626 11.1241 5.55766C11.1905 5.57168 11.2285 5.57763 11.2974 5.57154C11.2895 5.5853 11.2827 5.59982 11.2736 5.61283C11.2104 5.70289 11.1671 5.72731 11.0631 5.75146C10.9306 5.71997 10.8522 5.66754 10.7593 5.56704C10.333 5.10595 10.3262 4.78787 10.3599 4.194Z" fill="#9E6859"/>
<path d="M11.3826 5.9792C11.5545 5.85652 11.7076 5.70937 11.877 5.58273C11.9029 5.69094 11.9005 5.75256 12.0072 5.81601C12.35 6.01993 12.7956 5.69657 13.0018 6.19229C13.0069 6.20467 13.0114 6.21729 13.0162 6.22981C12.4869 6.10813 11.9202 6.08216 11.3826 5.9792Z" fill="#9E6859"/>
<path d="M9.52649 5.15356C9.67478 5.10502 9.82107 5.10727 9.97542 5.10281C9.99083 5.29183 10.0063 5.47981 10.0332 5.66765C10.0836 5.94725 10.1284 6.14301 10.3109 6.37115C10.7245 6.72857 11.0524 6.68088 11.5512 6.72529C11.6399 6.77767 11.7045 6.81997 11.8109 6.82472C11.8849 6.78502 11.9163 6.74301 11.965 6.6755C12.1939 6.58584 12.5171 6.72357 12.7639 6.7209C12.6384 6.94219 12.4102 7.12447 12.1705 7.20457C12.0499 7.24487 11.7324 7.31805 11.6213 7.26498L11.6198 7.20253L11.6935 7.15018L11.7561 7.18328C11.8022 7.16605 11.8334 7.16045 11.8826 7.16726C12.0573 7.19151 12.1403 7.20817 12.2904 7.10121C12.4074 7.01787 12.5674 6.94012 12.6414 6.81594C12.6281 6.81063 12.6152 6.80424 12.6015 6.79996C12.3672 6.72682 11.8734 6.97083 11.6512 7.06919L11.5948 7.09458C11.5949 7.04027 11.6013 7.06519 11.5774 7.0193C11.2665 7.05703 10.9385 7.09776 10.6332 7.00485C10.3178 6.90885 10.1875 6.70207 10.0379 6.42996L10.0097 6.4469C9.9945 6.79836 10.1662 6.83716 10.3474 7.09594C10.3373 7.09554 10.3272 7.09629 10.3173 7.09476C10.1989 7.07639 10.0454 6.96345 9.9822 6.8658C9.73993 6.49169 9.73013 6.10299 9.81939 5.68195L9.82182 5.73152C9.86782 5.53505 9.90345 5.37082 9.88594 5.16744C9.78405 5.18916 9.69717 5.2097 9.59493 5.17717C9.57192 5.16986 9.54931 5.16144 9.52649 5.15356Z" fill="#F6A393"/>
<path d="M7.07352 6.15667C7.33647 5.85164 7.85601 5.59554 8.22944 5.45895L8.30555 5.54708C7.85719 5.77465 7.45426 6.02283 7.0498 6.32372C7.08889 6.24319 7.09406 6.24276 7.07352 6.15667Z" fill="#FA9B95"/>
<path d="M15.6646 13.8282C15.9622 13.7825 16.3556 13.8307 16.615 13.9873C16.7691 14.08 16.8928 14.2184 16.9274 14.3995C16.9572 14.555 16.9095 14.7162 16.8181 14.8432C16.5996 15.1467 16.2428 15.2087 15.9011 15.2733C15.5531 15.3114 15.1864 15.2551 14.9006 15.0397C14.7516 14.9273 14.632 14.7661 14.6145 14.5757C14.6011 14.4298 14.6496 14.29 14.7437 14.1784C14.969 13.9113 15.3382 13.861 15.6646 13.8282Z" fill="#FA9B95"/>
<path d="M7.43342 13.8606C7.7524 13.8367 8.02629 13.8449 8.32701 13.9769C8.52462 14.0636 8.7249 14.2055 8.80179 14.4159C8.85048 14.5493 8.83995 14.6919 8.77533 14.8178C8.61677 15.1267 8.25233 15.2301 7.94601 15.3246C7.92408 15.3285 7.90233 15.3335 7.88029 15.3367C7.4122 15.4059 7.02062 15.2133 6.65496 14.9462C6.62903 14.872 6.60343 14.7971 6.58652 14.7201C6.54765 14.5432 6.55728 14.3553 6.6658 14.2037C6.8362 13.9658 7.16506 13.9123 7.43342 13.8606Z" fill="#FA9B95"/>
<path d="M14.483 11.9994C14.5717 11.9933 14.6636 11.9876 14.7523 11.9972C14.9687 12.0208 15.1916 12.1235 15.3243 12.3C15.5309 12.5739 15.4892 12.8567 15.4367 13.1702C15.2791 13.3799 15.1193 13.5083 14.8936 13.6356C14.7314 13.6859 14.5948 13.6845 14.4305 13.6367C14.2401 13.5814 14.0995 13.4673 14.0062 13.2922C13.8912 13.0768 13.8643 12.8093 13.938 12.5764C14.0331 12.2758 14.2176 12.1438 14.483 11.9994Z" fill="#261A19"/>
<path d="M15.077 12.2982C15.1198 12.3153 15.1609 12.3364 15.1999 12.361C15.2973 12.4223 15.3311 12.4926 15.354 12.6013C15.3157 12.7201 15.2876 12.7322 15.1941 12.8093C15.1117 12.8014 15.0456 12.7829 14.9676 12.7554C14.9322 12.7126 14.8947 12.6876 14.8919 12.6292C14.8852 12.4879 14.9878 12.3931 15.077 12.2982Z" fill="#FDF7F7"/>
<path d="M8.53071 12.0718C8.86313 12.0272 9.10311 12.1256 9.38731 12.2836C9.48899 12.5814 9.58361 12.8699 9.47405 13.1838C9.37961 13.4541 9.18196 13.6025 8.93578 13.7266C8.78039 13.759 8.69758 13.7608 8.54559 13.708C8.32412 13.631 8.15785 13.5044 8.058 13.2879C7.91584 12.9794 7.96966 12.7241 8.07458 12.4191C8.21869 12.2836 8.36541 12.1791 8.53071 12.0718Z" fill="#261A19"/>
<path d="M9.11721 12.4787C9.23921 12.4423 9.36814 12.509 9.40933 12.6292C9.45056 12.7497 9.38936 12.8813 9.2707 12.9273C9.18953 12.9587 9.09767 12.9433 9.03133 12.887C8.96496 12.8307 8.93479 12.7426 8.95273 12.6573C8.97067 12.5721 9.03379 12.5036 9.11721 12.4787Z" fill="#FDF7F7"/>
<path d="M11.035 13.7187C11.2315 13.8114 11.4155 13.9576 11.6191 14.0325C11.8587 14.121 12.1355 13.8906 12.3536 13.8071C12.4449 13.7718 12.4942 13.7611 12.5844 13.7975C12.6274 13.9434 12.5421 14.0867 12.4818 14.2173C12.4025 14.3093 12.323 14.3877 12.2105 14.438C11.9417 14.5582 11.5931 14.5521 11.3234 14.438C11.1755 14.3753 11.047 14.2733 10.9885 14.1196C10.9287 13.963 10.9708 13.8638 11.035 13.7187Z" fill="#261A19"/>
<path d="M8.55263 11.0008C8.64888 11.0033 8.69828 11.0065 8.78565 11.0535C8.81871 11.2846 8.13069 11.3018 7.93665 11.6819C7.91543 11.7001 7.87181 11.7065 7.84464 11.7147C7.77374 11.6687 7.77531 11.6673 7.74902 11.5864C7.76036 11.5325 7.77213 11.4836 7.80195 11.4362C7.96878 11.1705 8.2676 11.0785 8.55263 11.0008Z" fill="#261A19"/>
<path d="M14.6894 10.9512C14.8525 10.9601 15.018 11.0036 15.1692 11.0639C15.3496 11.1356 15.6459 11.2736 15.702 11.4833C15.7271 11.5771 15.674 11.6235 15.6254 11.6966C15.468 11.581 15.3333 11.3867 15.1495 11.3121C14.9809 11.2436 14.7847 11.254 14.6229 11.1698C14.6067 11.0621 14.6357 11.0429 14.6894 10.9512Z" fill="#261A19"/>
<path d="M26.7004 4.03371C26.9173 4.03396 27.1405 4.02279 27.3566 4.03542C29.0556 4.2137 30.4408 4.35332 31.8367 5.47558C33.03 6.43503 33.7407 7.55494 34.1987 9.00615C34.3581 9.512 34.49 10.014 34.5471 10.5432C34.7907 12.795 34.3859 15.2119 32.9333 17.009C32.3295 17.7558 31.265 18.5728 30.3716 18.9551C29.8684 19.1702 29.2154 19.3175 28.6719 19.3713C27.9055 19.4477 25.7093 19.4808 25.0146 19.3193C24.827 19.2758 24.6398 19.1841 24.4576 19.1199C23.5528 18.8018 22.7568 18.4345 22.0135 17.8143C20.5075 16.5582 19.7789 14.6409 19.6155 12.7251C19.4276 10.5204 19.8923 8.11995 21.3627 6.40261C22.9212 4.58224 24.4205 4.22222 26.7004 4.03371ZM28.4469 9.3615C28.2504 9.22381 28.0899 9.0915 27.8713 8.98461C27.2782 8.82324 26.4497 8.89745 25.9098 9.20758C25.4123 9.49335 25.0613 10.0241 24.9226 10.575C24.73 11.3417 24.7068 13.2155 25.1216 13.9184C25.3477 14.3021 25.7397 14.545 26.1665 14.6481C26.7529 14.79 27.3877 14.6638 27.898 14.3503C28.474 13.9965 28.7832 13.515 28.9315 12.8585C28.9832 12.6292 29.0335 11.713 29.0831 11.6142C29.0588 10.7718 28.9444 10.0682 28.4469 9.3615Z" fill="#9ECEB9"/>
<path d="M27.031 8.30664C27.1986 8.19408 27.771 8.2708 27.981 8.31224C28.6091 8.43617 29.2642 8.85083 29.6248 9.38225C30.2874 10.3592 30.3359 12.3335 30.0905 13.4565C30.0766 13.5225 30.0599 13.5881 30.0406 13.6531L30.001 13.6705C29.8701 14.1923 29.7289 14.5232 29.4065 14.9558L29.2742 14.9088L29.3017 14.8727C30.0998 13.8039 30.1665 11.9605 29.8894 10.6955C29.8145 10.3542 29.5855 9.9759 29.5449 9.68489L29.5848 9.6616C29.7136 9.81613 29.7542 10.0962 29.8487 10.2843L29.8805 10.2247C29.6669 9.54063 29.3519 9.01901 28.6975 8.68046C28.3384 8.49476 27.9643 8.50222 27.629 8.34141C27.5866 8.32104 27.6073 8.32814 27.5517 8.32397L27.4761 8.38734L27.5185 8.32811L27.4757 8.38342C27.4971 8.38634 27.5181 8.38905 27.5395 8.39223C27.6059 8.40214 27.6629 8.42026 27.7264 8.44173C27.9336 8.51195 28.3213 8.48342 28.434 8.69726C28.4393 8.70746 28.4422 8.71887 28.4461 8.72971C28.3716 8.74262 28.3601 8.73249 28.2906 8.70838C28.2189 8.68356 28.1761 8.66812 28.0998 8.68335C28.3031 8.80582 28.5752 8.87411 28.7984 8.95953C28.8088 8.95464 28.8188 8.94965 28.8291 8.94491C28.8769 8.92251 28.8584 8.9306 28.9147 8.91163C29.0738 9.16078 29.4693 10.0046 29.4778 10.2782C29.2478 9.86638 29.1034 9.43617 28.7171 9.12775C28.143 8.66958 27.1925 8.56463 26.4857 8.64155L26.5402 8.58634C26.4293 8.54177 26.1561 8.61177 26.0445 8.65978C25.7474 8.7877 25.5124 9.11352 25.1904 9.15867C25.1019 9.24933 25.0342 9.31288 24.8976 9.31053C24.8837 9.31031 24.8701 9.30832 24.8566 9.30718C24.9151 9.22087 24.9775 9.14066 25.0502 9.06559C25.5638 8.53463 26.3042 8.30853 27.031 8.30664Z" fill="#7FB19D"/>
<path d="M29.2742 14.9088L29.3016 14.8727C30.0998 13.8039 30.1665 11.9605 29.8894 10.6955C29.8145 10.3542 29.5855 9.97589 29.5449 9.68488L29.5848 9.66159C29.7135 9.81612 29.7542 10.0962 29.8487 10.2843L29.8804 10.2247C30.1925 10.8717 30.2068 12.0842 30.1276 12.7857C30.0955 13.0721 29.9974 13.3877 30.001 13.6705C29.8701 14.1923 29.7289 14.5232 29.4065 14.9558L29.2742 14.9088Z" fill="#6A9981"/>
<path d="M22.4026 13.6495C22.6034 13.545 22.8584 13.4855 23.0752 13.4127L23.3417 13.789C23.3349 13.8803 23.3292 13.9751 23.3131 14.0653C23.2304 14.5286 22.888 14.8467 22.5257 15.1085C22.2026 14.9587 21.8934 14.8178 21.6369 14.5625C21.4814 14.4077 21.3459 14.2112 21.3563 13.9826C21.3659 13.7729 21.4872 13.6834 21.6352 13.5532C21.898 13.4687 22.1484 13.5743 22.4026 13.6495Z" fill="#FA9B95"/>
<path d="M21.635 13.5532C21.8978 13.4687 22.1482 13.5743 22.4025 13.6495C22.267 13.6902 22.1083 13.7165 21.9667 13.7108C21.8119 13.7051 21.7391 13.6677 21.635 13.5532Z" fill="#F8D0B3"/>
<path d="M31.5628 13.4647C31.7301 13.4476 31.8467 13.5532 32.0083 13.561C32.1873 13.5696 32.3795 13.5311 32.5611 13.5275C32.6609 13.5254 32.78 13.5361 32.8482 13.6195C32.9847 13.7872 32.9498 14.1313 32.9526 14.3367C32.7358 14.4969 32.5329 14.678 32.3175 14.8414C32.1923 14.9266 32.0482 14.9894 31.9127 15.0571C31.5543 14.8207 31.1427 14.5432 30.9976 14.116C30.9526 13.984 30.9494 13.8603 31.0179 13.7347C31.1224 13.5439 31.3717 13.5083 31.5628 13.4647Z" fill="#FA9B95"/>
<path d="M20.9693 15.8214C20.9611 15.8118 20.9515 15.8036 20.9443 15.7929C20.9076 15.7401 20.9026 15.7037 20.8431 15.6699C20.7553 15.6203 20.6715 15.5647 20.6255 15.4712C20.1801 14.5639 19.9112 12.0372 20.2628 11.0807C20.1572 12.1024 20.1601 13.0361 20.4247 14.0368C20.5199 14.396 20.6737 14.7508 20.7507 15.1124L20.8805 15.1221C21.1965 15.7583 21.562 16.3589 22.0253 16.8995C22.4297 17.289 22.8827 17.6649 23.3759 17.937C23.607 18.0643 23.8602 18.1567 24.0874 18.2876C24.2767 18.3546 24.4654 18.4177 24.6612 18.4623C24.8969 18.5158 25.5934 18.5914 25.7635 18.687L25.7129 18.7358L25.7903 18.8139C25.6512 18.8239 25.5032 18.7922 25.3655 18.7737C24.8049 18.8578 24.1808 18.6328 23.6783 18.4056L23.6391 18.3931C23.5271 18.3582 23.4561 18.325 23.368 18.2451C23.0456 17.953 22.664 17.7383 22.3434 17.4434C22.0973 17.2173 21.8359 16.9716 21.6301 16.7087C21.4015 16.4163 21.2107 16.1075 20.9693 15.8214Z" fill="#7FB19D"/>
<path d="M23.6782 18.4056C23.2595 17.8521 22.3904 17.585 21.9592 16.9398L22.0252 16.8995C22.4296 17.289 22.8826 17.6649 23.3758 17.937C23.6069 18.0643 23.8601 18.1567 24.0873 18.2875C24.2766 18.3546 24.4653 18.4177 24.6611 18.4623C24.8968 18.5158 25.5933 18.5914 25.7635 18.687L25.7128 18.7358L25.7902 18.8139C25.6511 18.8239 25.5031 18.7922 25.3654 18.7736C24.8048 18.8578 24.1807 18.6328 23.6782 18.4056Z" fill="#6A9981"/>
<path d="M20.2628 11.0807C20.3923 10.1266 20.5292 9.18865 20.934 8.30274C21.0888 7.96319 21.4665 7.11272 21.8442 6.9711L21.8106 7.02724C21.7122 7.18983 21.5856 7.33498 21.4825 7.49493C21.285 7.80013 21.1181 8.13041 20.9718 8.46269C20.2657 10.0662 20.1398 12.3389 20.5478 14.0379C20.6352 14.402 20.7454 14.7726 20.8805 15.1221L20.7507 15.1124C20.6737 14.7508 20.52 14.3959 20.4248 14.0368C20.1601 13.0361 20.1573 12.1024 20.2628 11.0807Z" fill="#6A9981"/>
<path d="M24.7953 14.7879C24.8103 14.7961 24.8252 14.8043 24.8399 14.8132C24.9162 14.8578 24.8823 14.8378 24.9568 14.8899C25.0207 14.9348 24.99 14.9213 25.0571 14.9373L25.0232 14.8956C25.3038 15.0939 25.6038 15.3588 25.9101 15.509C26.0389 15.5721 26.3006 15.5817 26.388 15.6688C27.0182 15.8096 27.9326 15.835 28.5118 15.5097L28.6002 15.5682C27.9583 15.978 27.056 15.9501 26.3384 15.7914C26.3006 15.7832 26.2632 15.7743 26.2257 15.764C25.6002 15.5882 25.2165 15.2665 24.7953 14.7879Z" fill="#7FB19D"/>
<path d="M30.5081 18.1812C30.395 18.3528 29.5427 18.5999 29.3037 18.6488C28.5277 18.8086 27.7377 18.9006 26.9453 18.8788C26.5612 18.8681 26.1721 18.8128 25.7902 18.8139L25.7128 18.7358L25.7634 18.687C26.9499 18.789 28.3519 18.8111 29.5116 18.5311C29.8565 18.448 30.1807 18.3161 30.5081 18.1812Z" fill="#447A62"/>
<path d="M28.4468 9.36148C28.5983 9.37271 28.7093 9.44126 28.8109 9.55356C29.3755 10.1769 29.4464 11.739 29.3922 12.5468C29.3904 12.5742 29.3865 12.6017 29.3826 12.6291C29.3202 11.7508 29.4675 11.2326 29.0816 10.3745C29.0195 10.2368 28.9878 10.0895 28.8986 9.96594L28.9033 10.0469L28.9147 10.0023L28.8869 10.0175C29.1429 10.3795 29.1586 11.6652 29.1098 12.1149L29.0869 12.1013C29.0941 11.9619 29.1165 11.801 29.0923 11.6634C29.0894 11.647 29.0859 11.6306 29.083 11.6142C29.0588 10.7718 28.9443 10.0682 28.4468 9.36148Z" fill="#BECDBA"/>
<path d="M28.5117 15.5097C28.7813 15.3267 29.037 15.1324 29.2742 14.9088L29.4065 14.9558C29.1747 15.2572 28.9301 15.3945 28.6002 15.5682L28.5117 15.5097Z" fill="#7FB19D"/>
<path d="M3.03974 3.51316C3.2497 3.49818 3.43482 3.50831 3.62356 3.61109C3.88829 3.75521 4.10209 4.01031 4.17502 4.30453C4.41796 5.28467 3.52762 6.47062 3.05679 7.25925C2.46211 7.16046 1.91895 6.98532 1.36959 6.73906C1.16834 6.6514 0.968304 6.55714 0.78075 6.44248C0.434672 6.23093 0.105356 5.89537 0.0212619 5.48656C-0.0380464 5.19818 0.0279666 4.87796 0.203716 4.64055C0.373545 4.41113 0.631998 4.27703 0.912384 4.23998C1.38086 4.17807 1.69402 4.40235 2.04135 4.67589C2.10297 4.42265 2.16731 4.14258 2.31471 3.92475C2.49563 3.65734 2.73967 3.57632 3.03974 3.51316Z" fill="#FA9B95"/>
<path d="M25.27 1.70994C25.26 1.54564 25.2382 1.36319 25.2603 1.2006C25.2735 1.10302 25.3106 1.04564 25.3873 0.984726C25.5028 0.944034 25.6155 0.946994 25.7325 0.983799C25.8434 1.01875 25.939 1.09539 25.9882 1.20181C26.0499 1.3338 26.0403 1.49525 25.9907 1.62917C25.9358 1.7771 25.821 1.91683 25.6712 1.97485C25.4964 2.04258 25.2721 1.99386 25.107 1.92014C24.8866 1.82185 24.7143 1.65381 24.6352 1.42374C24.5531 1.18469 24.5439 0.86579 24.6712 0.639933C24.8038 0.403877 25.0242 0.197635 25.2939 0.136365C25.5642 0.075024 25.8524 0.156657 26.0767 0.311293C26.8545 0.847065 26.816 2.15096 26.965 2.98356L27.0895 3.06836L27.1059 3.01287C27.372 2.10053 27.3099 0.840182 28.2778 0.314752C28.4779 0.206086 28.765 0.10705 28.9947 0.169532C29.2318 0.234047 29.4387 0.43558 29.5453 0.651879C29.6576 0.879804 29.6691 1.13184 29.5799 1.36957C29.4939 1.59835 29.3003 1.85577 29.0674 1.95078C28.8855 2.02489 28.623 2.0027 28.4504 1.91426C28.3302 1.85267 28.2347 1.75705 28.1983 1.62403C28.1573 1.47385 28.2015 1.30573 28.2825 1.17663C28.332 1.09757 28.428 0.988934 28.5225 0.964398C28.6302 0.936402 28.6601 0.954021 28.7557 0.998065C28.8891 1.21461 29.035 1.40413 29.1794 1.60998C29.0307 1.5389 28.7461 1.32792 28.5952 1.34222C28.5178 1.37998 28.525 1.35955 28.4904 1.44814C28.5075 1.54232 28.5364 1.62645 28.6148 1.68733C28.6883 1.74407 28.7657 1.77696 28.8595 1.76026C29.0503 1.72631 29.1576 1.52713 29.2436 1.37396C29.3181 1.24054 29.3281 1.07506 29.3488 0.925704C29.1976 0.724491 29.0007 0.525096 28.7382 0.485331C28.5724 0.460153 28.4166 0.522885 28.2878 0.625096C27.5824 1.18494 27.4319 2.73131 27.3577 3.57468C27.3438 3.72942 27.3374 3.88067 27.3566 4.03541C27.1405 4.02279 26.9173 4.03395 26.7004 4.0337C26.7364 3.19686 26.6002 1.70645 26.2111 0.984191C26.0364 0.660545 25.8474 0.521386 25.5004 0.425273L25.4622 0.435652L25.3994 0.453734C25.317 0.476986 25.2347 0.497849 25.158 0.536865C24.9768 0.628984 24.9041 0.749991 24.8506 0.943714C24.8113 1.0853 24.816 1.24999 24.8951 1.37781C24.9843 1.52164 25.1262 1.65641 25.2928 1.69379C25.4258 1.72374 25.5114 1.72646 25.6295 1.65531C25.6733 1.58295 25.683 1.53245 25.6747 1.44971C25.6626 1.33277 25.617 1.26044 25.5292 1.1838L25.4672 1.18908C25.4337 1.22863 25.4183 1.25623 25.408 1.30741C25.3784 1.45695 25.3356 1.572 25.27 1.70994Z" fill="url(#paint0_linear_6_6)"/>
<path d="M26.9651 2.98355L27.0896 3.06836C27.1174 3.09643 27.106 3.07852 27.1134 3.13601C27.1309 3.27731 27.1006 3.72478 27.0143 3.83263C27.0122 3.8292 27.0097 3.82592 27.0075 3.82228C26.9052 3.62289 26.9009 3.19347 26.9651 2.98355Z" fill="#9ECEB9"/>
<path d="M36.0607 17.5632C36.4056 17.5475 36.6759 17.6541 36.9313 17.8838C37.2565 18.177 37.4791 18.6534 37.4808 19.096C37.4816 19.2251 37.4527 19.3785 37.345 19.4637C37.0967 19.6595 36.5539 19.601 36.2455 19.5989C35.7358 19.5996 35.2636 19.5204 34.7761 19.3745C34.8096 18.9637 34.8942 18.4965 35.121 18.1463C35.3507 17.7918 35.6641 17.6488 36.0607 17.5632Z" fill="#F8D0B3"/>
<path d="M5.98545 1.69605C6.07568 1.6897 6.12468 1.6816 6.20731 1.72565C6.30603 1.83317 6.30842 1.98931 6.32949 2.12825C6.18944 2.37248 6.02603 2.60258 5.84158 2.81531L5.50617 2.70518C5.26533 2.60122 5.11216 2.49527 5.00317 2.25054C4.972 2.1805 4.95324 2.10507 4.98876 2.03299C5.11016 1.78677 5.6837 1.80839 5.93481 1.71523L5.98545 1.69605Z" fill="#FA9B95"/>
<path d="M10.2994 3.76591C10.4704 3.55364 10.7905 3.21612 11.0761 3.19172C11.1727 3.18349 11.2484 3.19736 11.3194 3.26747C11.3813 3.32856 11.3978 3.39262 11.3984 3.47507C11.1781 3.75774 10.6885 3.75221 10.7325 4.2357L10.6793 4.27778C10.571 4.26099 10.4652 4.22443 10.36 4.19401C10.3931 4.0123 10.4035 3.92732 10.2994 3.76591Z" fill="#7D5947"/>
<path d="M45.1113 14.8623V4.75366H46.6303C47.3068 4.75366 47.8458 4.80604 48.2474 4.91079C48.6533 5.01554 48.9959 5.19231 49.2753 5.4411C49.559 5.69862 49.7837 6.01942 49.9496 6.40351C50.1198 6.79197 50.2049 7.18479 50.2049 7.58198C50.2049 8.30652 49.9278 8.91975 49.3735 9.42169C49.9103 9.60501 50.3337 9.92581 50.6436 10.3841C50.9578 10.838 51.115 11.3662 51.115 11.9685C51.115 12.7585 50.8356 13.4263 50.277 13.9719C49.9409 14.308 49.5633 14.5415 49.1443 14.6724C48.686 14.799 48.1121 14.8623 47.4224 14.8623H45.1113ZM46.6368 9.09434H47.1147C47.6821 9.09434 48.0968 8.96995 48.3587 8.72116C48.6249 8.46801 48.758 8.09701 48.758 7.60817C48.758 7.13242 48.6227 6.77233 48.3521 6.52791C48.0815 6.27912 47.6887 6.15473 47.1737 6.15473H46.6368V9.09434ZM46.6368 13.4285H47.5796C48.2692 13.4285 48.7755 13.2932 49.0985 13.0226C49.4389 12.7301 49.6092 12.3591 49.6092 11.9096C49.6092 11.4731 49.4455 11.1065 49.1181 10.8097C48.7995 10.5172 48.2299 10.371 47.4094 10.371H46.6368V13.4285ZM57.4656 8.48547H58.9452V14.8623H57.4656V14.1945C56.8589 14.7619 56.2064 15.0456 55.508 15.0456C54.6264 15.0456 53.8975 14.727 53.3213 14.0897C52.7495 13.4394 52.4637 12.6276 52.4637 11.6542C52.4637 10.6984 52.7495 9.90181 53.3213 9.26456C53.8931 8.62732 54.6089 8.3087 55.4687 8.3087C56.2107 8.3087 56.8764 8.61423 57.4656 9.22528V8.48547ZM53.9695 11.6542C53.9695 12.2653 54.1332 12.7629 54.4605 13.147C54.7966 13.5354 55.22 13.7296 55.7306 13.7296C56.2762 13.7296 56.717 13.542 57.0531 13.1666C57.3892 12.7781 57.5572 12.2849 57.5572 11.687C57.5572 11.089 57.3892 10.5958 57.0531 10.2073C56.717 9.82761 56.2806 9.63774 55.7437 9.63774C55.2374 9.63774 54.814 9.82979 54.4736 10.2139C54.1375 10.6023 53.9695 11.0825 53.9695 11.6542ZM62.2777 3.80434V9.22528C62.8669 8.61423 63.5347 8.3087 64.281 8.3087C65.1409 8.3087 65.8567 8.6295 66.4285 9.27111C67.0002 9.90836 67.2861 10.7027 67.2861 11.6542C67.2861 12.6363 66.9981 13.4481 66.4219 14.0897C65.8502 14.727 65.1278 15.0456 64.2549 15.0456C63.5172 15.0456 62.8582 14.7619 62.2777 14.1945V14.8623H60.8046V3.80434H62.2777ZM65.7803 11.7197C65.7803 11.1086 65.6145 10.6111 65.2827 10.227C64.9467 9.83416 64.5255 9.63774 64.0192 9.63774C63.4779 9.63774 63.0371 9.82761 62.6967 10.2073C62.3606 10.5827 62.1925 11.0715 62.1925 11.6739C62.1925 12.2937 62.3584 12.789 62.6901 13.16C63.0218 13.5398 63.4583 13.7296 63.9995 13.7296C64.5102 13.7296 64.9336 13.5398 65.2696 13.16C65.6101 12.776 65.7803 12.2958 65.7803 11.7197ZM70.6055 13.6773L67.7379 8.48547H69.4467L71.3977 12.1518L73.2177 8.48547H74.8807L69.8002 18.3322H68.1176L70.6055 13.6773Z" fill="#FA9B95"/>
<path d="M77.4799 3.80434V14.8623H76.0068V3.80434H77.4799ZM79.0446 11.628C79.0446 10.7071 79.3741 9.92363 80.0332 9.27766C80.6923 8.63168 81.4954 8.3087 82.4425 8.3087C83.394 8.3087 84.2015 8.63387 84.8649 9.28421C85.5196 9.93454 85.847 10.7333 85.847 11.6804C85.847 12.6363 85.5174 13.4372 84.8584 14.0832C84.1949 14.7248 83.3809 15.0456 82.4163 15.0456C81.4605 15.0456 80.6595 14.7182 80.0136 14.0635C79.3676 13.4176 79.0446 12.6057 79.0446 11.628ZM80.5504 11.6542C80.5504 12.2915 80.7206 12.7956 81.0611 13.1666C81.4103 13.542 81.8707 13.7296 82.4425 13.7296C83.0186 13.7296 83.4791 13.5441 83.8239 13.1731C84.1687 12.8021 84.3411 12.3068 84.3411 11.687C84.3411 11.0672 84.1687 10.5718 83.8239 10.2008C83.4748 9.82543 83.0143 9.63774 82.4425 9.63774C81.8795 9.63774 81.4234 9.82543 81.0742 10.2008C80.725 10.5762 80.5504 11.0606 80.5504 11.6542ZM87.1105 11.628C87.1105 10.7071 87.4401 9.92363 88.0991 9.27766C88.7582 8.63168 89.5613 8.3087 90.5084 8.3087C91.4599 8.3087 92.2674 8.63387 92.9308 9.28421C93.5856 9.93454 93.9129 10.7333 93.9129 11.6804C93.9129 12.6363 93.5834 13.4372 92.9243 14.0832C92.2609 14.7248 91.4469 15.0456 90.4823 15.0456C89.5264 15.0456 88.7255 14.7182 88.0795 14.0635C87.4335 13.4176 87.1105 12.6057 87.1105 11.628ZM88.6164 11.6542C88.6164 12.2915 88.7866 12.7956 89.127 13.1666C89.4762 13.542 89.9367 13.7296 90.5084 13.7296C91.0846 13.7296 91.5451 13.5441 91.8899 13.1731C92.2347 12.8021 92.4071 12.3068 92.4071 11.687C92.4071 11.0672 92.2347 10.5718 91.8899 10.2008C91.5407 9.82543 91.0802 9.63774 90.5084 9.63774C89.9454 9.63774 89.4893 9.82543 89.1401 10.2008C88.7909 10.5762 88.6164 11.0606 88.6164 11.6542ZM96.9507 3.80434V10.5478L99.0261 8.48547H101.003L98.2339 11.1632L101.206 14.8623H99.2946L97.1864 12.1714L96.9507 12.4071V14.8623H95.4776V3.80434H96.9507Z" fill="#9ECEB9"/>
<defs>
<linearGradient id="paint0_linear_6_6" x1="26.587" y1="3.93927" x2="27.2825" y2="-0.068379" gradientUnits="userSpaceOnUse">
<stop stop-color="#99B3A5"/>
<stop offset="1" stop-color="#B9BFB7"/>
</linearGradient>
</defs>
</svg>
