<svg width="10" height="6" viewBox="0 0 10 6" fill="none" xmlns="http://www.w3.org/2000/svg">
<path d="M2.74792 0.973846C2.77567 1.01691 2.7729 1.03959 2.76407 1.08807C2.79215 1.09618 2.82037 1.10594 2.84926 1.11042L2.86345 1.09919C3.50897 1.06242 3.98368 1.12514 4.48622 1.57023C4.87868 1.91783 5.0598 2.42265 5.0893 2.93449C5.12422 3.53927 5.03002 4.11751 4.61372 4.58651C4.38191 4.8476 4.11558 4.99204 3.78337 5.08453C3.6777 5.11393 3.56616 5.14286 3.45625 5.14933C3.31013 5.15799 3.16242 5.15494 3.01606 5.15485C2.88107 5.15475 2.74149 5.16141 2.60724 5.14638C2.51267 5.13582 2.42088 5.10527 2.33053 5.07673C2.02385 4.97986 1.88114 4.90136 1.64074 4.68642C1.25384 4.34064 1.07146 3.83081 1.04615 3.32271C1.01587 2.71412 1.15251 2.12204 1.56951 1.66123C1.83881 1.36363 2.19677 1.19861 2.58629 1.12989L2.67623 1.11336C2.69145 1.06306 2.71994 1.01782 2.74792 0.973846Z" fill="#F8D0B3"/>
<path d="M2.86345 1.09918C3.50897 1.06241 3.98368 1.12513 4.48622 1.57022C4.87868 1.91782 5.0598 2.42264 5.0893 2.93448C5.12422 3.53926 5.03002 4.1175 4.61372 4.5865C4.38191 4.84759 4.11558 4.99203 3.78337 5.08452C3.6777 5.11392 3.56616 5.14285 3.45625 5.14932C3.31013 5.15797 3.16242 5.15493 3.01606 5.15484C2.88107 5.15474 2.74149 5.1614 2.60724 5.14637C2.51267 5.13581 2.42088 5.10526 2.33053 5.07672C2.02385 4.97985 1.88114 4.90135 1.64074 4.68641C1.25384 4.34063 1.07146 3.8308 1.04615 3.32269C1.01587 2.71411 1.15251 2.12203 1.56951 1.66122C1.83881 1.36362 2.19677 1.1986 2.58629 1.12988L2.67623 1.11335L2.67286 1.14102C2.66927 1.20413 2.66671 1.26752 2.66144 1.33052C2.62026 1.33171 2.58123 1.33111 2.54167 1.34406L2.47044 1.35677C2.38427 1.38379 2.29807 1.41124 2.21596 1.44906L2.19565 1.42555C2.09602 1.46199 1.9574 1.53032 1.88724 1.6117C1.89273 1.63467 1.89135 1.63479 1.88092 1.65627C1.68635 1.80351 1.48716 2.0671 1.40445 2.29826C1.24928 2.69869 1.23129 3.03534 1.25859 3.45724C1.25973 3.46038 1.26107 3.46352 1.26201 3.46675C1.28411 3.54373 1.27967 3.63774 1.29831 3.71891C1.36958 4.03633 1.53411 4.32521 1.77078 4.54844C1.77347 4.551 1.77625 4.55348 1.77892 4.55605C1.78686 4.56375 1.78407 4.56081 1.7904 4.57099C2.17027 4.89079 2.54078 4.96406 3.02502 4.96577C3.15372 4.96625 3.28459 4.97043 3.41291 4.95949C3.74628 4.93104 4.04385 4.83199 4.30291 4.61628C4.35075 4.55843 4.40934 4.50819 4.46033 4.45281C4.52225 4.38563 4.57657 4.31341 4.63435 4.24281C4.69453 4.14699 4.74272 4.04527 4.78691 3.94127C4.80863 3.83946 4.84523 3.74089 4.86689 3.63888C4.90242 3.47142 4.90413 3.29929 4.90613 3.12887C4.88931 3.01678 4.888 2.90003 4.87327 2.78671C4.83876 2.69565 4.83726 2.57068 4.79752 2.46374C4.75454 2.28114 4.63853 2.06844 4.52699 1.91804C4.30164 1.61417 3.90707 1.38112 3.53112 1.32941C3.43504 1.31619 2.92829 1.26998 2.87249 1.31208C2.85192 1.24243 2.84649 1.18225 2.84926 1.11041L2.86345 1.09918Z" fill="#F6A393"/>
<path d="M1.79041 4.57098C2.17028 4.89079 2.54079 4.96405 3.02502 4.96577C3.15372 4.96624 3.2846 4.97043 3.41292 4.95949C3.74629 4.93104 4.04386 4.83198 4.30292 4.61628L4.31385 4.64044C4.25519 4.67613 4.20582 4.72589 4.14921 4.76452C4.09229 4.80344 4.01581 4.82894 3.95226 4.85577C3.84149 4.90249 3.72747 4.94674 3.60908 4.96986C3.42461 5.00583 3.24367 4.99602 3.05731 5.00192C2.96113 5.00506 2.86236 5.01734 2.7664 5.01163C2.64455 5.0044 2.40357 4.9691 2.28687 4.93522C2.22356 4.91686 2.16437 4.87347 2.105 4.84473C2.04217 4.81429 1.97596 4.78917 1.91128 4.76281L1.92816 4.75862C1.98298 4.78755 2.05587 4.80401 2.11496 4.82637L2.12256 4.82228C2.06651 4.76243 1.97747 4.73112 1.90872 4.68669C1.86903 4.661 1.80055 4.61894 1.79041 4.57098Z" fill="#E58573"/>
<path d="M1.88729 1.61169C1.89277 1.63466 1.89139 1.63478 1.88096 1.65626C1.68639 1.8035 1.4872 2.06709 1.40449 2.29825C1.24933 2.69868 1.23133 3.03533 1.25863 3.45723C1.2581 3.46675 1.25465 3.47445 1.25153 3.4834C1.20407 3.41708 1.25758 3.10746 1.22496 3.06949C1.19373 3.09004 1.21644 3.10898 1.19647 3.13524C1.18413 3.08662 1.25034 2.60099 1.26798 2.542C1.29603 2.44812 1.34318 2.35379 1.37995 2.26237C1.43925 2.04436 1.70472 1.73718 1.88729 1.61169Z" fill="#E58573"/>
<path d="M2.67626 1.11334L2.67289 1.14101C2.66929 1.20413 2.66674 1.26752 2.66147 1.33052C2.62029 1.33171 2.58126 1.33111 2.5417 1.34406L2.47047 1.35677C2.3843 1.38378 2.2981 1.41123 2.21598 1.44906L2.19568 1.42554C2.27503 1.39062 2.54261 1.20041 2.58632 1.12988L2.67626 1.11334Z" fill="#E58573"/>
<path d="M2.47043 1.35678C2.46506 1.34112 2.46518 1.3492 2.47133 1.33254C2.55622 1.28306 2.61747 1.22081 2.67286 1.14102C2.66926 1.20414 2.6667 1.26753 2.66144 1.33053C2.62026 1.33171 2.58123 1.33112 2.54166 1.34407L2.47043 1.35678Z" fill="#9E6859"/>
<path d="M4.90621 3.12888C4.9458 3.19615 4.9222 3.40177 4.92781 3.48893C4.90659 3.66667 4.87258 3.76696 4.82064 3.93414L4.78699 3.94128C4.80871 3.83947 4.84531 3.74089 4.86697 3.63889C4.9025 3.47142 4.90421 3.29929 4.90621 3.12888Z" fill="#E58573"/>
<path d="M4.87329 2.7867L4.88628 2.76443L4.89969 2.76615C4.94041 2.86882 4.96096 3.38625 4.92776 3.48892C4.92214 3.40176 4.94574 3.19614 4.90616 3.12886C4.88933 3.01678 4.88802 2.90003 4.87329 2.7867Z" fill="#FA9B95"/>
<path d="M4.6344 4.24281C4.69457 4.147 4.74277 4.04528 4.78696 3.94128L4.82061 3.93414C4.78673 4.04166 4.75136 4.1547 4.67392 4.23872C4.66979 4.24319 4.6658 4.24776 4.66175 4.25233L4.6344 4.24281Z" fill="#E58573"/>
<path d="M2.74797 0.973846C2.77573 1.01691 2.77295 1.03959 2.76412 1.08807C2.79221 1.09618 2.82042 1.10594 2.84932 1.11042C2.84655 1.18227 2.85197 1.24244 2.87254 1.31209C2.89848 1.36605 2.91944 1.41417 2.96802 1.4519C2.98575 1.45564 2.99587 1.45723 3.01426 1.4556C3.04939 1.4113 3.10062 1.35816 3.15192 1.33469C3.18328 1.32033 3.20215 1.32405 3.23213 1.33594C3.21165 1.37719 3.19019 1.41776 3.16887 1.45858C3.17577 1.48745 3.17515 1.50389 3.20361 1.52081C3.29507 1.57522 3.41397 1.48895 3.46896 1.62121C3.47033 1.62451 3.47152 1.62788 3.47281 1.63122C3.47534 1.66015 3.4818 1.68443 3.46144 1.70905C3.44557 1.72825 3.42405 1.7456 3.40547 1.76224C3.33962 1.76296 3.2534 1.72621 3.19233 1.75013C3.17934 1.76814 3.17096 1.77935 3.15122 1.78994C3.12282 1.78868 3.1056 1.77739 3.08192 1.76341C2.94885 1.75157 2.86135 1.76429 2.75101 1.66893C2.70232 1.60806 2.69036 1.55583 2.67692 1.48123C2.66975 1.43112 2.66561 1.38096 2.6615 1.33053C2.66676 1.26753 2.66932 1.20414 2.67292 1.14103L2.67629 1.11336C2.6915 1.06306 2.72 1.01782 2.74797 0.973846Z" fill="#7A493A"/>
<path d="M2.76403 1.08804C2.79212 1.09616 2.82033 1.10591 2.84923 1.11039C2.84646 1.18224 2.85188 1.24242 2.87246 1.31207C2.89839 1.36603 2.91935 1.41415 2.96793 1.45187C2.98566 1.45561 2.99578 1.4572 3.01418 1.45557C3.01205 1.45925 3.01025 1.46312 3.00781 1.46659C2.99097 1.49062 2.97941 1.49714 2.95167 1.50358C2.91629 1.49518 2.8954 1.48119 2.87061 1.45438C2.75687 1.33135 2.75506 1.24649 2.76403 1.08804Z" fill="#9E6859"/>
<path d="M3.03699 1.56434C3.08286 1.5316 3.12371 1.49235 3.1689 1.45856C3.1758 1.48743 3.17518 1.50387 3.20364 1.5208C3.2951 1.5752 3.414 1.48893 3.46899 1.62119C3.47036 1.62449 3.47155 1.62786 3.47284 1.6312C3.33161 1.59873 3.18042 1.59181 3.03699 1.56434Z" fill="#9E6859"/>
<path d="M2.54175 1.34405C2.58131 1.3311 2.62034 1.33169 2.66152 1.33051C2.66563 1.38094 2.66977 1.43109 2.67695 1.48121C2.69038 1.5558 2.70234 1.60803 2.75103 1.6689C2.86137 1.76426 2.94887 1.75154 3.08194 1.76339C3.10562 1.77736 3.12285 1.78865 3.15124 1.78992C3.17098 1.77932 3.17937 1.76812 3.19236 1.7501C3.25342 1.72618 3.33965 1.76293 3.40549 1.76222C3.37202 1.82126 3.31112 1.86989 3.24718 1.89126C3.215 1.90201 3.13029 1.92154 3.10064 1.90738L3.10024 1.89072L3.11991 1.87675L3.13662 1.88558C3.14891 1.88098 3.15724 1.87949 3.17037 1.88131C3.21699 1.88778 3.23913 1.89222 3.27918 1.86369C3.31038 1.84145 3.35307 1.82071 3.37283 1.78757C3.36928 1.78616 3.36583 1.78445 3.36218 1.78331C3.29967 1.7638 3.1679 1.8289 3.10862 1.85514L3.09357 1.86192C3.09362 1.84742 3.09532 1.85408 3.08893 1.84183C3.006 1.8519 2.91848 1.86276 2.83703 1.83798C2.75286 1.81236 2.71811 1.75719 2.67819 1.68459L2.67066 1.68911C2.66661 1.78288 2.71242 1.79324 2.76076 1.86228C2.75808 1.86217 2.75538 1.86237 2.75274 1.86196C2.72114 1.85706 2.6802 1.82693 2.66333 1.80088C2.5987 1.70106 2.59608 1.59736 2.6199 1.48502L2.62054 1.49825C2.63282 1.44583 2.64232 1.40201 2.63765 1.34775C2.61047 1.35354 2.58729 1.35902 2.56001 1.35034C2.55387 1.34839 2.54784 1.34615 2.54175 1.34405Z" fill="#F6A393"/>
<path d="M1.88731 1.61169C1.95746 1.53031 2.09608 1.46198 2.19571 1.42554L2.21602 1.44905C2.09639 1.50977 1.98889 1.57598 1.88098 1.65626C1.89141 1.63477 1.89279 1.63466 1.88731 1.61169Z" fill="#FA9B95"/>
<path d="M4.17931 3.65847C4.25871 3.64629 4.36368 3.65914 4.43289 3.70091C4.474 3.72565 4.50701 3.76257 4.51623 3.81091C4.52418 3.85239 4.51146 3.8954 4.48709 3.92927C4.42879 4.01025 4.33358 4.02681 4.2424 4.04403C4.14958 4.05421 4.05173 4.03917 3.97549 3.9817C3.93571 3.95173 3.90381 3.90872 3.89915 3.85791C3.89557 3.81899 3.90852 3.78169 3.93361 3.75191C3.99374 3.68064 4.09224 3.66723 4.17931 3.65847Z" fill="#FA9B95"/>
<path d="M1.98323 3.66715C2.06833 3.66077 2.14141 3.66296 2.22164 3.69817C2.27436 3.72129 2.3278 3.75916 2.34831 3.8153C2.3613 3.85088 2.3585 3.88894 2.34125 3.92253C2.29895 4.00493 2.20171 4.03253 2.11999 4.05774C2.11414 4.05879 2.10833 4.06012 2.10245 4.06098C1.97757 4.07944 1.87309 4.02806 1.77553 3.95679C1.76861 3.937 1.76178 3.91701 1.75727 3.89646C1.7469 3.84927 1.74947 3.79912 1.77842 3.75868C1.82389 3.69522 1.91163 3.68094 1.98323 3.66715Z" fill="#FA9B95"/>
<path d="M3.86416 3.17056C3.88782 3.16894 3.91234 3.16742 3.93599 3.16999C3.99374 3.17627 4.05321 3.20367 4.08861 3.25077C4.14372 3.32385 4.13261 3.3993 4.11861 3.48294C4.07656 3.53889 4.03392 3.57314 3.97369 3.60711C3.93041 3.62053 3.89397 3.62015 3.85014 3.6074C3.79934 3.59265 3.76184 3.5622 3.73693 3.51548C3.70625 3.45801 3.69907 3.38665 3.71875 3.32451C3.74413 3.2443 3.79335 3.20909 3.86416 3.17056Z" fill="#261A19"/>
<path d="M4.02261 3.25027C4.03402 3.25484 4.04499 3.26046 4.05539 3.26702C4.08138 3.28339 4.0904 3.30213 4.09653 3.33115C4.08629 3.36284 4.07881 3.36607 4.05384 3.38663C4.03186 3.38453 4.01422 3.37959 3.99341 3.37226C3.98397 3.36084 3.97397 3.35418 3.97323 3.33858C3.97143 3.3009 3.99881 3.27558 4.02261 3.25027Z" fill="#FDF7F7"/>
<path d="M2.27607 3.18985C2.36476 3.17796 2.42879 3.20422 2.50462 3.24637C2.53174 3.32582 2.55699 3.4028 2.52776 3.48653C2.50256 3.55866 2.44983 3.59824 2.38415 3.63136C2.34269 3.64001 2.32059 3.64049 2.28004 3.62641C2.22095 3.60585 2.17659 3.57208 2.14995 3.51432C2.11202 3.43201 2.12638 3.36388 2.15437 3.28253C2.19282 3.24637 2.23197 3.21849 2.27607 3.18985Z" fill="#261A19"/>
<path d="M2.43245 3.29842C2.465 3.28872 2.4994 3.30651 2.51039 3.33858C2.52139 3.37074 2.50506 3.40585 2.4734 3.41812C2.45175 3.4265 2.42724 3.42241 2.40954 3.40737C2.39183 3.39234 2.38378 3.36884 2.38857 3.34609C2.39335 3.32335 2.41019 3.30508 2.43245 3.29842Z" fill="#FDF7F7"/>
<path d="M2.94416 3.62927C2.99658 3.65401 3.04567 3.69302 3.1 3.71301C3.16394 3.7366 3.23777 3.67514 3.29598 3.65287C3.32034 3.64345 3.33349 3.6406 3.35755 3.6503C3.36903 3.68922 3.34627 3.72747 3.33018 3.7623C3.30902 3.78684 3.28781 3.80778 3.25777 3.82119C3.18608 3.85326 3.09306 3.85164 3.02111 3.82119C2.98165 3.80445 2.94737 3.77723 2.93176 3.73622C2.9158 3.69445 2.92703 3.668 2.94416 3.62927Z" fill="#261A19"/>
<path d="M2.28191 2.90411C2.30759 2.90478 2.32077 2.90564 2.34408 2.9182C2.3529 2.97985 2.16934 2.98442 2.11756 3.08585C2.1119 3.09071 2.10027 3.09242 2.09301 3.09461C2.0741 3.08233 2.07452 3.08195 2.0675 3.06035C2.07053 3.04598 2.07367 3.03295 2.08162 3.02029C2.12614 2.94941 2.20586 2.92486 2.28191 2.90411Z" fill="#261A19"/>
<path d="M3.9192 2.8909C3.96271 2.89328 4.00689 2.90489 4.04723 2.92097C4.09536 2.94009 4.1744 2.97692 4.18936 3.03287C4.19608 3.05789 4.18191 3.07026 4.16892 3.08977C4.12694 3.05894 4.091 3.00708 4.04195 2.98719C3.997 2.96892 3.94463 2.97168 3.90145 2.94923C3.89715 2.92049 3.90489 2.91535 3.9192 2.8909Z" fill="#261A19"/>
<path d="M7.12374 1.04528C7.18159 1.04535 7.24116 1.04237 7.29882 1.04574C7.75212 1.0933 8.12169 1.13055 8.49411 1.42998C8.81249 1.68596 9.00213 1.98476 9.1243 2.37195C9.16683 2.50691 9.20204 2.64086 9.21726 2.78204C9.28225 3.38283 9.17426 4.02767 8.7867 4.50713C8.62561 4.70638 8.34159 4.92437 8.10323 5.02638C7.96897 5.08375 7.79475 5.12305 7.64974 5.13742C7.44526 5.15778 6.85932 5.16663 6.67396 5.12353C6.62391 5.11192 6.57396 5.08746 6.52534 5.07034C6.28394 4.98546 6.07156 4.88746 5.87326 4.72199C5.47144 4.38686 5.27704 3.87533 5.23346 3.36418C5.18332 2.77595 5.3073 2.13551 5.69961 1.67731C6.11542 1.19163 6.51544 1.09558 7.12374 1.04528ZM7.5897 2.46676C7.53727 2.43002 7.49445 2.39472 7.43612 2.3662C7.27789 2.32314 7.05685 2.34295 6.91279 2.42569C6.78006 2.50193 6.68643 2.64355 6.64941 2.79051C6.59803 2.99508 6.59185 3.49501 6.70251 3.68255C6.76283 3.78494 6.86741 3.84973 6.9813 3.87723C7.13773 3.9151 7.3071 3.88142 7.44326 3.79778C7.59693 3.70339 7.67943 3.57494 7.71901 3.39976C7.73281 3.33858 7.74622 3.09414 7.75945 3.06778C7.75298 2.84303 7.72244 2.6553 7.5897 2.46676Z" fill="#9ECEB9"/>
<path d="M7.21197 2.18533C7.2567 2.1553 7.40941 2.17576 7.46546 2.18682C7.63302 2.21989 7.80781 2.33052 7.90401 2.4723C8.0808 2.73295 8.09374 3.25971 8.02828 3.55934C8.02457 3.57694 8.0201 3.59445 8.01496 3.61177L8.00439 3.61643C7.96947 3.75564 7.9318 3.84394 7.84578 3.95936L7.81048 3.9468L7.8178 3.93719C8.03075 3.65202 8.04855 3.16018 7.97461 2.82268C7.95463 2.73162 7.89354 2.63069 7.8827 2.55305L7.89335 2.54683C7.9277 2.58806 7.93855 2.6628 7.96377 2.71297L7.97223 2.69708C7.91524 2.51456 7.83122 2.37539 7.65662 2.28506C7.5608 2.23552 7.46099 2.23751 7.37154 2.1946C7.36022 2.18917 7.36574 2.19106 7.3509 2.18995L7.33072 2.20686L7.34205 2.19105L7.33063 2.20581C7.33634 2.20659 7.34195 2.20732 7.34766 2.20816C7.36536 2.21081 7.38058 2.21564 7.39752 2.22137C7.4528 2.2401 7.55623 2.23249 7.5863 2.28955C7.58773 2.29227 7.58849 2.29531 7.58954 2.2982C7.56965 2.30165 7.5666 2.29895 7.54805 2.29251C7.52892 2.28589 7.51751 2.28177 7.49714 2.28583C7.55138 2.31851 7.62398 2.33673 7.68354 2.35952C7.6863 2.35822 7.68897 2.35688 7.69173 2.35562C7.70448 2.34964 7.69953 2.3518 7.71456 2.34674C7.757 2.41321 7.86252 2.63836 7.86481 2.71135C7.80344 2.60147 7.7649 2.48669 7.66185 2.4044C7.50866 2.28216 7.25508 2.25416 7.06649 2.27468L7.08105 2.25995C7.05145 2.24806 6.97857 2.26674 6.94879 2.27954C6.86952 2.31368 6.80682 2.40061 6.7209 2.41265C6.6973 2.43684 6.67922 2.4538 6.64278 2.45317C6.63907 2.45311 6.63545 2.45258 6.63184 2.45227C6.64744 2.42925 6.66409 2.40785 6.6835 2.38782C6.82052 2.24616 7.01806 2.18583 7.21197 2.18533Z" fill="#7FB19D"/>
<path d="M7.81042 3.94681L7.81775 3.9372C8.0307 3.65203 8.04849 3.16019 7.97456 2.82269C7.95458 2.73163 7.89349 2.6307 7.88265 2.55306L7.8933 2.54684C7.92765 2.58807 7.9385 2.66281 7.96371 2.71298L7.97218 2.69709C8.05544 2.86969 8.05925 3.19321 8.03812 3.38037C8.02956 3.45678 8.00339 3.54099 8.00434 3.61644C7.96942 3.75565 7.93174 3.84395 7.84573 3.95937L7.81042 3.94681Z" fill="#6A9981"/>
<path d="M5.97708 3.61082C6.03065 3.58294 6.09868 3.56705 6.15653 3.54764L6.22761 3.64802C6.2258 3.67238 6.22428 3.69769 6.22 3.72177C6.19792 3.84537 6.10658 3.93024 6.0099 4.00008C5.9237 3.96012 5.8412 3.92253 5.77279 3.85441C5.7313 3.81311 5.69514 3.76068 5.6979 3.69969C5.70047 3.64374 5.73282 3.61986 5.77231 3.58513C5.84244 3.56258 5.90923 3.59074 5.97708 3.61082Z" fill="#FA9B95"/>
<path d="M5.77234 3.58512C5.84247 3.56257 5.90926 3.59073 5.9771 3.61081C5.94095 3.62166 5.89861 3.6287 5.86083 3.62718C5.81953 3.62565 5.80012 3.61566 5.77234 3.58512Z" fill="#F8D0B3"/>
<path d="M8.42111 3.56154C8.46574 3.55697 8.49685 3.58513 8.53996 3.58723C8.58772 3.58951 8.63901 3.57923 8.68744 3.57828C8.71408 3.57771 8.74586 3.58057 8.76404 3.60283C8.80048 3.64755 8.79116 3.73937 8.79192 3.79418C8.73406 3.8369 8.67992 3.88524 8.62245 3.92882C8.58905 3.95156 8.55061 3.96831 8.51446 3.98639C8.41883 3.9233 8.30902 3.84927 8.2703 3.73528C8.25831 3.70008 8.25745 3.66706 8.27572 3.63357C8.3036 3.58266 8.37011 3.57314 8.42111 3.56154Z" fill="#FA9B95"/>
<path d="M5.59462 4.19029C5.59243 4.18772 5.58986 4.18554 5.58796 4.18268C5.57816 4.1686 5.57683 4.15889 5.56094 4.14985C5.53753 4.13663 5.51517 4.12178 5.50289 4.09685C5.38405 3.85479 5.3123 3.18064 5.40612 2.92545C5.37796 3.19805 5.37872 3.44716 5.44932 3.71416C5.47473 3.80997 5.51574 3.90465 5.53629 4.00113L5.57093 4.0037C5.65523 4.17345 5.75276 4.33369 5.87636 4.47794C5.98426 4.58184 6.10511 4.68213 6.2367 4.75473C6.29836 4.7887 6.36592 4.81335 6.42653 4.84827C6.47705 4.86615 6.52739 4.883 6.57963 4.89489C6.64252 4.90916 6.82835 4.92933 6.87374 4.95483L6.86023 4.96787L6.88088 4.98871C6.84377 4.99137 6.80428 4.98291 6.76755 4.97796C6.61797 5.00041 6.45146 4.94037 6.31739 4.87976L6.30692 4.87643C6.27705 4.86711 6.25811 4.85826 6.23461 4.83694C6.14859 4.75901 6.04678 4.70173 5.96124 4.62304C5.89558 4.56272 5.82584 4.49716 5.77093 4.42703C5.70994 4.34901 5.65904 4.26661 5.59462 4.19029Z" fill="#7FB19D"/>
<path d="M6.31752 4.87976C6.20581 4.73208 5.97392 4.66082 5.85889 4.48869L5.87649 4.47794C5.98439 4.58184 6.10523 4.68213 6.23683 4.75473C6.29849 4.7887 6.36604 4.81334 6.42666 4.84827C6.47718 4.86615 6.52752 4.88299 6.57975 4.89489C6.64265 4.90916 6.82848 4.92933 6.87387 4.95483L6.86036 4.96787L6.881 4.98871C6.84389 4.99137 6.80441 4.9829 6.76768 4.97796C6.6181 5.00041 6.45159 4.94037 6.31752 4.87976Z" fill="#6A9981"/>
<path d="M5.40613 2.92543C5.44067 2.67087 5.4772 2.42063 5.5852 2.18427C5.6265 2.09367 5.72726 1.86676 5.82803 1.82898L5.81908 1.84396C5.79282 1.88734 5.75904 1.92606 5.73154 1.96874C5.67883 2.05017 5.6343 2.13829 5.59529 2.22694C5.40689 2.65476 5.3733 3.26112 5.48215 3.71442C5.50547 3.81157 5.53487 3.91044 5.57093 4.00368L5.53629 4.00111C5.51574 3.90463 5.47473 3.80996 5.44933 3.71414C5.37872 3.44714 5.37796 3.19804 5.40613 2.92543Z" fill="#6A9981"/>
<path d="M6.61548 3.91455C6.61947 3.91674 6.62347 3.91893 6.62737 3.92131C6.64773 3.9332 6.6387 3.92787 6.65858 3.94176C6.67561 3.95375 6.66743 3.95014 6.68532 3.95442L6.67628 3.94329C6.75116 3.99619 6.83119 4.06689 6.91292 4.10695C6.94727 4.12379 7.01711 4.12636 7.04043 4.14957C7.20856 4.18716 7.45253 4.19392 7.60705 4.10714L7.63065 4.12274C7.45938 4.23207 7.21864 4.22465 7.0272 4.18231C7.01711 4.18012 7.00712 4.17774 6.99713 4.17498C6.83024 4.12807 6.72785 4.04224 6.61548 3.91455Z" fill="#7FB19D"/>
<path d="M8.13964 4.81992C8.10947 4.86568 7.88206 4.93162 7.81831 4.94466C7.61126 4.98729 7.4005 5.01184 7.18907 5.00603C7.0866 5.00318 6.98278 4.98843 6.88088 4.98871L6.86023 4.96788L6.87374 4.95484C7.19031 4.98205 7.56435 4.98795 7.87378 4.91326C7.96579 4.89109 8.05229 4.85588 8.13964 4.81992Z" fill="#447A62"/>
<path d="M7.58972 2.46677C7.63016 2.46976 7.65975 2.48805 7.68687 2.51801C7.8375 2.68433 7.85643 3.10109 7.84197 3.31661C7.84149 3.32394 7.84045 3.33126 7.8394 3.33859C7.82275 3.10423 7.86205 2.96598 7.75909 2.73704C7.74254 2.70032 7.73407 2.66102 7.71028 2.62804L7.71152 2.64964L7.71456 2.63774L7.70714 2.6418C7.77546 2.73838 7.77964 3.0814 7.76661 3.20138L7.76052 3.19777C7.76242 3.16056 7.76842 3.11765 7.76195 3.08092C7.76118 3.07654 7.76023 3.07217 7.75947 3.06779C7.753 2.84304 7.72246 2.65531 7.58972 2.46677Z" fill="#BECDBA"/>
<path d="M7.60706 4.10711C7.67899 4.0583 7.74721 4.00644 7.81049 3.94678L7.84579 3.95934C7.78394 4.03974 7.71867 4.07637 7.63065 4.12271L7.60706 4.10711Z" fill="#7FB19D"/>
<path d="M0.811015 0.906413C0.867031 0.902417 0.916424 0.905119 0.966778 0.932541C1.03741 0.970992 1.09445 1.03905 1.11391 1.11755C1.17873 1.37906 0.941182 1.69547 0.815564 1.90588C0.656899 1.87953 0.511983 1.8328 0.365412 1.7671C0.311718 1.74371 0.258347 1.71856 0.208307 1.68797C0.115972 1.63152 0.0281095 1.542 0.00567276 1.43292C-0.0101509 1.35598 0.00746158 1.27055 0.0543522 1.20721C0.0996633 1.14599 0.16862 1.11022 0.243428 1.10033C0.368418 1.08381 0.451971 1.14365 0.544639 1.21663C0.561081 1.14907 0.578246 1.07435 0.617572 1.01623C0.665842 0.944882 0.730955 0.923264 0.811015 0.906413Z" fill="#FA9B95"/>
<path d="M6.74211 0.425303C6.73945 0.381467 6.73365 0.332788 6.73955 0.289408C6.74307 0.263375 6.75296 0.248064 6.77342 0.231813C6.80425 0.220956 6.83432 0.221746 6.86553 0.231565C6.89512 0.24089 6.92062 0.261338 6.93375 0.289732C6.95021 0.324947 6.94764 0.368022 6.93442 0.403751C6.91976 0.44322 6.88912 0.4805 6.84916 0.495981C6.80254 0.514051 6.74268 0.501053 6.69863 0.481385C6.63983 0.455162 6.59387 0.410326 6.57274 0.348944C6.55086 0.285164 6.54839 0.20008 6.58235 0.139821C6.61775 0.0768398 6.67655 0.0218138 6.74849 0.00546678C6.82061 -0.0108993 6.8975 0.0108806 6.95735 0.0521382C7.16487 0.195084 7.1546 0.542967 7.19437 0.765108L7.22758 0.787735L7.23195 0.772929C7.30294 0.529513 7.28638 0.193248 7.54462 0.0530611C7.598 0.0240684 7.6746 -0.00235474 7.73588 0.0143158C7.79915 0.0315287 7.85434 0.0852984 7.88279 0.143008C7.91276 0.203819 7.91581 0.271063 7.89202 0.334491C7.86909 0.39553 7.81742 0.464211 7.75529 0.489559C7.70676 0.509331 7.63673 0.503413 7.59067 0.479815C7.55861 0.463383 7.53311 0.437873 7.5234 0.402381C7.51246 0.362313 7.52426 0.317459 7.54586 0.283014C7.55908 0.261919 7.58468 0.232935 7.60989 0.226389C7.63863 0.21892 7.64662 0.22362 7.67212 0.235371C7.70771 0.293147 7.74663 0.343711 7.78516 0.398632C7.74549 0.379669 7.66956 0.323377 7.62931 0.327192C7.60866 0.337269 7.61056 0.331817 7.60133 0.355453C7.6059 0.380582 7.61361 0.403028 7.63454 0.41927C7.65414 0.434409 7.67479 0.443182 7.69981 0.438729C7.75072 0.429671 7.77936 0.376528 7.80229 0.335661C7.82218 0.300065 7.82484 0.255915 7.83036 0.216065C7.79002 0.162381 7.73749 0.109182 7.66746 0.0985722C7.62322 0.0918545 7.58164 0.108592 7.54729 0.135862C7.35908 0.285231 7.31892 0.697807 7.29913 0.922821C7.29542 0.964107 7.29371 1.00446 7.29885 1.04575C7.24118 1.04238 7.18162 1.04536 7.12377 1.04529C7.13338 0.822018 7.09703 0.42437 6.99322 0.23167C6.9466 0.14532 6.89616 0.108192 6.80358 0.0825485L6.7934 0.0853175L6.77665 0.0901419C6.75467 0.0963458 6.73269 0.101912 6.71224 0.112322C6.6639 0.136899 6.64449 0.169184 6.63022 0.220871C6.61975 0.258646 6.62099 0.302587 6.64211 0.336689C6.6659 0.375063 6.70377 0.411021 6.7482 0.420993C6.7837 0.428986 6.80653 0.429709 6.83803 0.410726C6.84973 0.39142 6.8523 0.377946 6.85011 0.355871C6.84688 0.324671 6.8347 0.305374 6.81129 0.284926L6.79473 0.286335C6.78579 0.296887 6.7817 0.304252 6.77894 0.317906C6.77104 0.357803 6.75962 0.388499 6.74211 0.425303Z" fill="url(#paint0_linear_5_193)"/>
<path d="M7.19432 0.765106L7.22752 0.787733C7.23495 0.795222 7.2319 0.790445 7.2339 0.805784C7.23856 0.843483 7.23047 0.962869 7.20745 0.991643C7.20688 0.99073 7.20621 0.989854 7.20564 0.988883C7.17833 0.935684 7.17719 0.821112 7.19432 0.765106Z" fill="#9ECEB9"/>
<path d="M9.62106 4.655C9.71307 4.65082 9.78519 4.67927 9.85332 4.74055C9.9401 4.81876 9.99947 4.94588 9.99995 5.06397C10.0001 5.09841 9.99243 5.13933 9.9637 5.16207C9.89747 5.21431 9.75265 5.1987 9.67034 5.19813C9.53437 5.19832 9.40839 5.1772 9.27832 5.13828C9.28726 5.02866 9.30982 4.90402 9.37033 4.81058C9.43161 4.716 9.51525 4.67784 9.62106 4.655Z" fill="#F8D0B3"/>
<path d="M1.59687 0.421571C1.62094 0.419877 1.63402 0.417718 1.65606 0.429469C1.6824 0.458157 1.68304 0.499814 1.68866 0.536885C1.6513 0.602045 1.6077 0.663437 1.55849 0.720194L1.46899 0.690812C1.40474 0.663075 1.36387 0.634806 1.33479 0.569513C1.32648 0.550825 1.32147 0.5307 1.33095 0.51147C1.36334 0.445777 1.51636 0.451544 1.58336 0.42669L1.59687 0.421571Z" fill="#FA9B95"/>
<path d="M2.74792 0.973827C2.79354 0.917193 2.87894 0.827142 2.95514 0.820634C2.9809 0.818436 3.0011 0.822137 3.02005 0.840843C3.03656 0.857143 3.04096 0.874233 3.04112 0.896232C2.98236 0.971648 2.85174 0.970174 2.86346 1.09917L2.84927 1.1104C2.82037 1.10592 2.79216 1.09616 2.76407 1.08805C2.7729 1.03957 2.77568 1.01689 2.74792 0.973827Z" fill="#7D5947"/>
<defs>
<linearGradient id="paint0_linear_5_193" x1="7.09351" y1="1.02009" x2="7.27905" y2="-0.0491597" gradientUnits="userSpaceOnUse">
<stop stop-color="#99B3A5"/>
<stop offset="1" stop-color="#B9BFB7"/>
</linearGradient>
</defs>
</svg>
