<svg width="200" height="203" viewBox="0 0 200 203" fill="none" xmlns="http://www.w3.org/2000/svg">
<path d="M193.233 175.466L192.396 174.615L171.832 194.869L172.325 195.363L177.689 200.811C181.143 204.309 188.533 202.607 194.213 197.018C199.89 191.419 201.696 184.055 198.257 180.56L193.233 175.466Z" fill="#9ECEB9"/>
<path d="M187.435 169.668L166.874 189.912L171.832 194.873L192.396 174.615L191.814 174.028L191.803 174.032L187.435 169.668Z" fill="#8DFFCD"/>
<path d="M80.1298 0.00221465C36.2067 -0.322159 0.333961 35.0272 0.00221533 78.9503C-0.322158 122.873 35.0161 158.746 78.9466 159.074C95.2242 159.196 110.385 154.408 123.05 146.107L166.874 189.912L187.435 169.668L143.91 126.154C153.302 113.208 158.949 97.3474 159.078 80.1372C159.41 36.2104 124.06 0.330274 80.1298 0.00221465ZM80.2072 135.476C49.3217 135.247 24.474 110.024 24.6988 79.1382C24.931 48.2454 50.1584 23.394 81.0402 23.6262C111.929 23.8547 136.781 49.0747 136.549 79.9713C136.316 110.86 111.1 135.708 80.2072 135.48V135.476Z" fill="#616E7D"/>
<path d="M112.269 42.4988C105.899 36.5163 96.3595 32.4395 86.256 32.1631L85.74 69.4291L112.272 42.4988H112.269Z" fill="#9ECEB9"/>
<path d="M79.249 31.8608C52.8568 31.6654 33.2138 52.9082 33.0148 79.293C32.8194 105.678 54.0474 127.227 80.4359 127.426C98.9399 127.562 116.224 116.766 122.667 102.718L79.8535 79.6395L80.2111 31.8903C79.8867 31.8829 79.5697 31.8608 79.249 31.8571V31.8608Z" fill="#FA9B95"/>
<path d="M100.565 83.7237L110.613 52.5433L103.676 59.5653L96.5916 81.5526L100.565 83.7237Z" fill="#9ECEB9"/>
<path d="M95.4159 80.9149L101.623 61.6442L94.6861 68.6625L91.4424 78.7439L95.4159 80.9149Z" fill="#9ECEB9"/>
<path d="M116.028 92.15L125.933 61.3899C125.133 59.3846 124.193 57.4495 123.128 55.5991L112.051 89.9789L116.032 92.1463L116.028 92.15Z" fill="#9ECEB9"/>
<path d="M121.178 94.9625L128.66 71.7403C128.284 68.8763 127.606 66.0822 126.681 63.384L117.208 92.7951L121.178 94.9625Z" fill="#9ECEB9"/>
<path d="M124.694 96.8755C127.731 91.0921 128.974 84.2839 129.022 77.2989C129.025 76.5506 129.007 75.8023 128.974 75.0577L122.354 95.6001L124.69 96.8755H124.694Z" fill="#9ECEB9"/>
<path d="M101.741 84.3651L105.722 86.5325L117.993 48.426C117.47 47.8325 116.943 47.2501 116.393 46.6935L112.663 50.4681L101.741 84.3688V84.3651Z" fill="#9ECEB9"/>
<path d="M92.633 70.7414L87.0745 76.3663L90.2629 78.1025L92.633 70.7414Z" fill="#9ECEB9"/>
<path d="M110.872 89.3413L122.221 54.0989C121.229 52.5249 120.157 51.0136 118.996 49.6019L106.898 87.1739L110.868 89.3413H110.872Z" fill="#9ECEB9"/>
</svg>
